<svg width="32" height="32" viewBox="0 0 32 32" fill="none" xmlns="http://www.w3.org/2000/svg">
  <!-- Music Note -->
  <path d="M12 8V20C12 22.2091 10.2091 24 8 24C5.79086 24 4 22.2091 4 20C4 17.7909 5.79086 16 8 16C9.10457 16 10 15.1046 10 14V10C10 8.89543 10.8954 8 12 8H16V4C16 2.89543 16.8954 2 18 2H20C21.1046 2 22 2.89543 22 4V8C22 9.10457 21.1046 10 20 10H16" stroke="#00D4FF" stroke-width="2" stroke-linecap="round" stroke-linejoin="round"/>
  <!-- Equalizer Bars -->
  <rect x="26" y="6" width="2" height="4" rx="1" fill="#FF6B6B"/>
  <rect x="26" y="12" width="2" height="6" rx="1" fill="#4ECDC4"/>
  <rect x="26" y="20" width="2" height="8" rx="1" fill="#FFE66D"/>
</svg>